<?xml version="1.0" encoding="UTF-8"?>
<svg xmlns="http://www.w3.org/2000/svg" xmlns:xlink="http://www.w3.org/1999/xlink" width="48px" height="48px" viewBox="0 0 48 48" version="1.1">
<g id="surface1">
<path style=" stroke:none;fill-rule:nonzero;fill:rgb(0%,0%,0%);fill-opacity:1;" d="M 24 2.878906 C 12.335938 2.878906 2.878906 12.335938 2.878906 24 C 2.878906 34.589844 10.679688 43.332031 20.84375 44.859375 L 20.84375 29.597656 L 15.617188 29.597656 L 15.617188 24.046875 L 20.84375 24.046875 L 20.84375 20.351562 C 20.84375 14.234375 23.824219 11.550781 28.90625 11.550781 C 31.339844 11.550781 32.628906 11.730469 33.238281 11.8125 L 33.238281 16.660156 L 29.769531 16.660156 C 27.613281 16.660156 26.859375 18.707031 26.859375 21.011719 L 26.859375 24.046875 L 33.183594 24.046875 L 32.324219 29.597656 L 26.859375 29.597656 L 26.859375 44.902344 C 37.167969 43.503906 45.121094 34.691406 45.121094 24 C 45.121094 12.335938 35.664062 2.878906 24 2.878906 Z M 24 2.878906 "/>
</g>
</svg>
